<svg xmlns="http://www.w3.org/2000/svg" viewBox="0 0 20 28">
  <use href="#path" fill="white"/>
  <defs>
    <path id="path" d="M 10 17.6842C 12.3714 17.6842 14.2714 15.7095 14.2714 13.2632L 14.2857 4.42105C 14.2857 1.97474 12.3714 0 10 0C 7.62857 0 5.71429 1.97474 5.71429 4.42105L 5.71429 13.2632C 5.71429 15.7095 7.62857 17.6842 10 17.6842ZM 17.5714 13.2632C 17.5714 17.6842 13.9429 20.7789 10 20.7789C 6.05714 20.7789 2.42857 17.6842 2.42857 13.2632L 0 13.2632C 0 18.3032 3.88571 22.4442 8.57143 23.1663L 8.57143 28L 11.4286 28L 11.4286 23.1663C 16.1143 22.4589 20 18.3032 20 13.2632L 17.5714 13.2632Z"/>
  </defs>
</svg>
